<svg xmlns="http://www.w3.org/2000/svg" viewBox="0 0 1600 900">
  <defs>
    <linearGradient id="g" x1="0" x2="1" y1="0" y2="1">
      <stop offset="0%" stop-color="#faf7f0"/>
      <stop offset="55%" stop-color="#efe1c4"/>
      <stop offset="100%" stop-color="#1a1715"/>
    </linearGradient>
  </defs>
  <rect width="1600" height="900" fill="url(#g)"/>
  <circle cx="1180" cy="220" r="84" fill="#be9848" opacity="0.85"/>
  <path d="M0 700c180-20 280-120 440-120s190 70 350 70 250-115 440-115 250 80 370 120v245H0Z" fill="#cfb279"/>
  <path d="M0 760c220 0 300-70 468-70 146 0 202 42 322 42 184 0 258-85 442-85 168 0 224 52 368 88v165H0Z" fill="#8e6f39" opacity="0.75"/>
  <text x="80" y="128" font-family="Georgia, serif" font-size="56" fill="#fff8ef">Logo Mark</text>
  <text x="80" y="188" font-family="Arial, sans-serif" font-size="28" fill="#f8e9c8">Erg Chebbi Luxury placeholder visual</text>
</svg>